<svg width="140" height="130" viewBox="0 0 140 130" fill="none" xmlns="http://www.w3.org/2000/svg">
<g filter="url(#filter0_d)">
<circle cx="70" cy="60" r="30" fill="white"/>
</g>
<path fill-rule="evenodd" clip-rule="evenodd" d="M59 60C59 59.4477 59.4477 59 60 59H80C80.5523 59 81 59.4477 81 60C81 60.5523 80.5523 61 80 61H60C59.4477 61 59 60.5523 59 60Z" fill="#23A3FF"/>
<path fill-rule="evenodd" clip-rule="evenodd" d="M70 71C69.4477 71 69 70.5523 69 70L69 50C69 49.4477 69.4477 49 70 49C70.5523 49 71 49.4477 71 50L71 70C71 70.5523 70.5523 71 70 71Z" fill="#23A3FF"/>
<defs>
<filter id="filter0_d" x="0" y="0" width="140" height="140" filterUnits="userSpaceOnUse" color-interpolation-filters="sRGB">
<feFlood flood-opacity="0" result="BackgroundImageFix"/>
<feColorMatrix in="SourceAlpha" type="matrix" values="0 0 0 0 0 0 0 0 0 0 0 0 0 0 0 0 0 0 127 0"/>
<feOffset dy="10"/>
<feGaussianBlur stdDeviation="20"/>
<feColorMatrix type="matrix" values="0 0 0 0 0 0 0 0 0 0 0 0 0 0 0 0 0 0 0.1 0"/>
<feBlend mode="normal" in2="BackgroundImageFix" result="effect1_dropShadow"/>
<feBlend mode="normal" in="SourceGraphic" in2="effect1_dropShadow" result="shape"/>
</filter>
</defs>
</svg>
